<svg xmlns="http://www.w3.org/2000/svg" viewBox="0 0 550 364" width="550" height="364" preserveAspectRatio="xMidYMid meet" style="width: 100%; height: 100%; transform: translate3d(0px, 0px, 0px);">
  <defs>
    <clipPath id="__lottie_element_42">
      <rect width="550" height="364" x="0" y="0"></rect>
    </clipPath>
  </defs>
  <g clip-path="url(#__lottie_element_42)">
    <g transform="matrix(1,0,0,1,-14,2.85931396484375)" opacity="1" style="display: block;">
      <g opacity="1" transform="matrix(1,0,0,1,424.3389892578125,271.0299987792969)">
        <path fill="rgb(255,255,255)" fill-opacity="1" d=" M-3.5160000324249268,65.66500091552734 C-8.430000305175781,68.23999786376953 -13.664999961853027,69.90699768066406 -19.051000595092773,71.16799926757812 C-25.611000061035156,72.7040023803711 -32.249000549316406,73.05899810791016 -38.95600128173828,72.77100372314453 C-51.7869987487793,72.22100067138672 -63.79199981689453,68.82099914550781 -75.01599884033203,62.58100128173828 C-79.57599639892578,60.04499816894531 -83.7770004272461,57.00199890136719 -87.8949966430664,53.832000732421875 C-88.9530029296875,53.016998291015625 -90.02799987792969,52.57500076293945 -91.39099884033203,52.680999755859375 C-93.50299835205078,52.84400177001953 -95.625,52.89400100708008 -97.74400329589844,52.972999572753906 C-102.93299865722656,53.16600036621094 -108.12699890136719,53.49800109863281 -113.30500030517578,52.82899856567383 C-121.3479995727539,51.790000915527344 -127.66500091552734,47.93000030517578 -132.03700256347656,41.069000244140625 C-133.9600067138672,38.04899978637695 -134.8730010986328,34.73500061035156 -134.57000732421875,31.082000732421875 C-134.13600158691406,25.85300064086914 -131.8350067138672,21.573999404907227 -128.22500610351562,17.906999588012695 C-124.81900024414062,14.447999954223633 -120.73500061035156,12.043000221252441 -116.24099731445312,10.289999961853027 C-106.80400085449219,6.60699987411499 -96.8949966430664,5.7170000076293945 -86.9020004272461,5.409999847412109 C-80.95500183105469,5.2270002365112305 -75.04399871826172,5.7210001945495605 -69.18399810791016,6.775000095367432 C-68.67500305175781,6.866000175476074 -68.1240005493164,6.954999923706055 -67.68000030517578,6.21999979019165 C-68.13899993896484,4.191999912261963 -68.625,2.0360000133514404 -69.11499786376953,-0.12099999934434891 C-70.4520034790039,-6.00600004196167 -70.76699829101562,-11.859999656677246 -68.75700378417969,-17.68600082397461 C-66.89600372314453,-23.07699966430664 -64.08399963378906,-27.893999099731445 -60.20800018310547,-32.071998596191406 C-57.50600051879883,-34.986000061035156 -54.301998138427734,-37.198001861572266 -50.62799835205078,-38.74399948120117 C-44.20000076293945,-41.448001861572266 -37.50400161743164,-41.93199920654297 -30.655000686645508,-41.257999420166016 C-22.030000686645508,-40.409000396728516 -14.442000389099121,-37.29800033569336 -8.267999649047852,-31.062999725341797 C-7.760000228881836,-30.548999786376953 -7.145999908447266,-30.141000747680664 -6.5,-29.617000579833984 C-5.497000217437744,-30.93600082397461 -5.171000003814697,-32.38999938964844 -4.690999984741211,-33.75899887084961 C-3.3589999675750732,-37.558998107910156 -2.1470000743865967,-41.40299987792969 -0.7620000243186951,-45.183998107910156 C1.1119999885559082,-50.301998138427734 3.7750000953674316,-54.98699951171875 7.297999858856201,-59.16899871826172 C11.491000175476074,-64.14700317382812 16.642000198364258,-67.70700073242188 22.767000198364258,-69.93599700927734 C28.85700035095215,-72.1510009765625 35.150001525878906,-73.05799865722656 41.5359992980957,-72.39199829101562 C60.06100082397461,-70.46099853515625 74.74299621582031,-62.125 84.34100341796875,-45.78799819946289 C86.052001953125,-42.875 87.52300262451172,-39.79199981689453 88.80999755859375,-36.66600036621094 C89.89299774169922,-34.03499984741211 90.69599914550781,-31.26300048828125 91.35900115966797,-28.489999771118164 C92.48100280761719,-23.80500030517578 92.48600006103516,-19.033000946044922 91.98200225830078,-14.255000114440918 C91.90899658203125,-13.559000015258789 91.95899963378906,-12.85099983215332 91.95099639892578,-12.038000106811523 C92.45700073242188,-12.069999694824219 92.75599670410156,-12.0600004196167 93.04199981689453,-12.114999771118164 C93.45700073242188,-12.194999694824219 93.86000061035156,-12.336999893188477 94.27400207519531,-12.427000045776367 C97.81099700927734,-13.197999954223633 101.2249984741211,-12.777999877929688 104.54199981689453,-11.37399959564209 C107.10900115966797,-10.288000106811523 109.43900299072266,-8.829000473022461 111.41899871826172,-6.868000030517578 C117.05500030517578,-1.2879999876022339 119.55599975585938,5.4029998779296875 118.47899627685547,13.336999893188477 C118.31099700927734,14.574999809265137 118.14299774169922,15.812000274658203 117.97899627685547,17.030000686645508 C118.39800262451172,17.280000686645508 118.64800262451172,17.474000930786133 118.93000030517578,17.591999053955078 C125.31400299072266,20.270999908447266 129.59300231933594,25.11400032043457 132.73699951171875,31.090999603271484 C134.41799926757812,34.28799819946289 134.87399291992188,37.71200180053711 134.3509979248047,41.284000396728516 C133.88299560546875,44.49100112915039 132.36399841308594,47.04999923706055 129.7949981689453,49.01599884033203 C128.0050048828125,50.38600158691406 126.0009994506836,51.32099914550781 123.89099884033203,52.060001373291016 C118.10099792480469,54.08700180053711 112.13300323486328,54.82400131225586 106.03700256347656,54.332000732421875 C100.66300201416016,53.89699935913086 95.302001953125,53.305999755859375 89.76300048828125,52.76599884033203 C89.2490005493164,53.25400161743164 88.58899688720703,53.78799819946289 88.04000091552734,54.417999267578125 C86,56.76100158691406 83.5999984741211,58.66600036621094 80.97100067138672,60.2859992980957 C78.26599884033203,61.95399856567383 75.56300354003906,63.632999420166016 72.78299713134766,65.1709976196289 C64.19499969482422,69.9209976196289 54.854000091552734,71.55000305175781 45.18000030517578,71.34200286865234 C36.689998626708984,71.15899658203125 28.652000427246094,68.89199829101562 21.017000198364258,65.21499633789062 C17.865999221801758,63.698001861572266 14.781000137329102,62.042999267578125 11.638999938964844,60.50400161743164 C9.937999725341797,59.66999816894531 8.180999755859375,58.94599914550781 6.190000057220459,58.055999755859375 C3.3269999027252197,61.430999755859375 0.07900000363588333,63.78099822998047 -3.5160000324249268,65.66500091552734z"></path>
      </g>
    </g>
    <g transform="matrix(1,0,0,1,6,-6.9440765380859375)" opacity="1" style="display: block;">
      <g opacity="1" transform="matrix(1,0,0,1,185.25799560546875,82.30599975585938)">
        <path fill="rgb(255,255,255)" fill-opacity="1" d=" M-8.291000366210938,62.20899963378906 C-10.958999633789062,63.4010009765625 -13.312000274658203,64.37000274658203 -15.592000007629395,65.48799896240234 C-19.799999237060547,67.55000305175781 -23.93400001525879,69.76499938964844 -28.1560001373291,71.7979965209961 C-38.38399887084961,76.7239990234375 -49.1510009765625,79.76200103759766 -60.52399826049805,80.00700378417969 C-73.48400115966797,80.28500366210938 -85.99700164794922,78.10199737548828 -97.50299835205078,71.73799896240234 C-101.22699737548828,69.67900085449219 -104.8479995727539,67.43000030517578 -108.47200012207031,65.19599914550781 C-111.99299621582031,63.0260009765625 -115.21099853515625,60.472999572753906 -117.94400024414062,57.33399963378906 C-118.67900085449219,56.48899841308594 -119.56199645996094,55.775001525878906 -120.2509994506836,55.119998931884766 C-127.6709976196289,55.84299850463867 -134.85299682617188,56.637001037597656 -142.052001953125,57.21900177001953 C-150.218994140625,57.87900161743164 -158.21299743652344,56.88999938964844 -165.968994140625,54.17399978637695 C-168.79600524902344,53.183998107910156 -171.48199462890625,51.93199920654297 -173.8800048828125,50.09700012207031 C-177.3209991455078,47.4630012512207 -179.35499572753906,44.03499984741211 -179.98300170898438,39.73899841308594 C-180.6820068359375,34.95399856567383 -180.072998046875,30.368000030517578 -177.8209991455078,26.084999084472656 C-173.61000061035156,18.077999114990234 -167.87600708007812,11.59000015258789 -159.32400512695312,8.00100040435791 C-158.9459991455078,7.8429999351501465 -158.61000061035156,7.584000110626221 -158.0489959716797,7.248000144958496 C-158.27000427246094,5.617000102996826 -158.49400329589844,3.9590001106262207 -158.718994140625,2.3010001182556152 C-160.16200256347656,-8.32800006866455 -156.81300354003906,-17.292999267578125 -149.26300048828125,-24.768999099731445 C-146.61000061035156,-27.395999908447266 -143.48800659179688,-29.349000930786133 -140.04800415039062,-30.804000854492188 C-135.60499572753906,-32.683998107910156 -131.03199768066406,-33.249000549316406 -126.29399871826172,-32.21500015258789 C-125.73999786376953,-32.09400177001953 -125.19999694824219,-31.902999877929688 -124.64399719238281,-31.79599952697754 C-124.26100158691406,-31.722000122070312 -123.86100006103516,-31.738000869750977 -123.18199920654297,-31.69499969482422 C-123.19300079345703,-32.78300094604492 -123.1259994506836,-33.733001708984375 -123.2239990234375,-34.665000915527344 C-123.89900207519531,-41.066001892089844 -123.89199829101562,-47.457000732421875 -122.38899993896484,-53.733001708984375 C-121.4990005493164,-57.448001861572266 -120.42400360107422,-61.1619987487793 -118.9729995727539,-64.68699645996094 C-117.2490005493164,-68.875 -115.27899932861328,-73.00499725341797 -112.98600006103516,-76.90799713134766 C-100.12799835205078,-98.79399871826172 -80.46199798583984,-109.95999908447266 -55.645999908447266,-112.5479965209961 C-47.09000015258789,-113.43900299072266 -38.65700149536133,-112.2249984741211 -30.49799919128418,-109.25700378417969 C-22.292999267578125,-106.27100372314453 -15.392999649047852,-101.50199890136719 -9.776000022888184,-94.83300018310547 C-5.056000232696533,-89.2300033569336 -1.4880000352859497,-82.95500183105469 1.0230000019073486,-76.0979995727539 C2.877000093460083,-71.03299713134766 4.5,-65.88400268554688 6.284999847412109,-60.792999267578125 C6.927999973297119,-58.95800018310547 7.366000175476074,-57.01100158691406 8.708999633789062,-55.24399948120117 C9.574999809265137,-55.94499969482422 10.395999908447266,-56.49300003051758 11.07699966430664,-57.180999755859375 C19.347999572753906,-65.53399658203125 29.51300048828125,-69.7020034790039 41.06800079345703,-70.83899688720703 C50.24399948120117,-71.74099731445312 59.2130012512207,-71.09400177001953 67.8239974975586,-67.47100067138672 C72.74500274658203,-65.4000015258789 77.03600311279297,-62.43600082397461 80.65599822998047,-58.53300094604492 C85.8479995727539,-52.93600082397461 89.61599731445312,-46.483001708984375 92.10900115966797,-39.26100158691406 C94.802001953125,-31.45599937438965 94.38300323486328,-23.613000869750977 92.59100341796875,-15.729000091552734 C91.93399810791016,-12.84000015258789 91.28199768066406,-9.949999809265137 90.66799926757812,-7.234000205993652 C91.26200103759766,-6.249000072479248 92.0009994506836,-6.36899995803833 92.68199920654297,-6.491000175476074 C100.53299713134766,-7.9029998779296875 108.45099639892578,-8.5649995803833 116.41799926757812,-8.319999694824219 C129.80499267578125,-7.9079999923706055 143.08099365234375,-6.715000152587891 155.7239990234375,-1.781000018119812 C161.7429962158203,0.5680000185966492 167.21400451660156,3.7869999408721924 171.77699279785156,8.42199993133545 C176.61300659179688,13.333999633789062 179.6959991455078,19.066999435424805 180.27699279785156,26.073999404907227 C180.6820068359375,30.965999603271484 179.46099853515625,35.40700149536133 176.88400268554688,39.45100021362305 C171.0279998779297,48.643001556396484 162.56399536132812,53.81399917602539 151.78900146484375,55.20600128173828 C144.8520050048828,56.10200119018555 137.89500427246094,55.65599822998047 130.94400024414062,55.39699935913086 C128.1060028076172,55.29199981689453 125.26200103759766,55.22700119018555 122.43199920654297,55.00699996948242 C120.60600280761719,54.86600112915039 119.16600036621094,55.45800018310547 117.75,56.54899978637695 C112.23300170898438,60.797000885009766 106.60399627685547,64.87200164794922 100.49500274658203,68.26799774169922 C85.45800018310547,76.62899780273438 69.37699890136719,81.18299865722656 52.18899917602539,81.91999816894531 C43.202999114990234,82.30599975585938 34.310001373291016,81.83100128173828 25.520999908447266,79.77300262451172 C18.305999755859375,78.08399963378906 11.293000221252441,75.85199737548828 4.710000038146973,72.4020004272461 C-0.10499999672174454,69.87799835205078 -4.455999851226807,66.72899627685547 -8.291000366210938,62.20899963378906z"></path>
      </g>
    </g>
    <g transform="matrix(1,0,0,1,-14,0)" opacity="1" style="display: block;">
      <g opacity="1" transform="matrix(1,0,0,1,354.5350036621094,137.02699279785156)">
        <path id="ruta-plane-path" stroke-linecap="butt" stroke-linejoin="miter" fill-opacity="0" stroke-miterlimit="10" stroke-dasharray=" 5.897 5.897" stroke-dashoffset="0" stroke="rgb(0,99,165)" stroke-opacity="1" stroke-width="2.198" d=" M-191.22000122070312,-213.6479949951172 C-209.63900756835938,-176.5290069580078 -277.7030029296875,-16.100000381469727 -133.57000732421875,80.91300201416016 C-133.57000732421875,80.91300201416016 -10.722000122070312,180.13499450683594 137.3249969482422,71.46299743652344 C137.3249969482422,71.46299743652344 198.7469940185547,13.189000129699707 160.947998046875,-15.15999984741211 C160.947998046875,-15.15999984741211 115.2750015258789,-51.3849983215332 75.9010009765625,13.189000129699707 C75.9010009765625,13.189000129699707 16.052000045776367,139.18600463867188 140.47500610351562,176.98500061035156 C140.47500610351562,176.98500061035156 213.79800415039062,213.6479949951172 277.7030029296875,104.93299865722656"></path>
      </g>
    </g>
    <g transform="matrix(0.8856220245361328,0.4644067585468292,-0.4644067585468292,0.8856220245361328,255.07875061035156,-156.42140197753906)" opacity="1" style="display: block;">
      <g opacity="1" transform="matrix(1,0,0,1,228.05999755859375,215.92599487304688)">
        <path fill="rgb(0,99,165)" fill-opacity="1" d=" M-21.864999771118164,25.670000076293945 C-21.864999771118164,25.670000076293945 5.343999862670898,13.362000465393066 5.343999862670898,13.362000465393066 C5.343999862670898,13.362000465393066 19.05900001525879,21.680999755859375 19.05900001525879,21.680999755859375 C22.201000213623047,23.610000610351562 26.94300079345703,23.690000534057617 29.624000549316406,23.47100067138672 C30.73200035095215,23.378999710083008 31.406999588012695,22.222999572753906 30.94099998474121,21.21299934387207 C29.81399917602539,18.770999908447266 27.413000106811523,14.680000305175781 24.18899917602539,12.894000053405762 C24.18899917602539,12.894000053405762 10.145000457763672,5.01200008392334 10.145000457763672,5.01200008392334 C10.145000457763672,5.01200008392334 10.199000358581543,5.041999816894531 10.199000358581543,5.041999816894531 C10.199000358581543,5.041999816894531 7.5370001792907715,-24.701000213623047 7.5370001792907715,-24.701000213623047 C7.468999862670898,-25.465999603271484 6.729000091552734,-25.986000061035156 5.986000061035156,-25.791000366210938 C5.986000061035156,-25.791000366210938 4.650000095367432,-25.44099998474121 4.650000095367432,-25.44099998474121 C4.188000202178955,-25.31999969482422 3.8369998931884766,-24.94499969482422 3.744999885559082,-24.476999282836914 C3.744999885559082,-24.476999282836914 -1.9270000457763672,-1.7170000076293945 -1.9270000457763672,-1.7170000076293945 C-1.9270000457763672,-1.7170000076293945 -11.449000358581543,-7.107999801635742 -11.449000358581543,-7.107999801635742 C-12.348999977111816,-7.671999931335449 -13.281000137329102,-8.175999641418457 -14.220999717712402,-8.62399959564209 C-14.513999938964844,-8.763999938964844 -14.793000221252441,-8.883000373840332 -15.079000473022461,-9.012999534606934 C-15.079000473022461,-9.012999534606934 -15.029999732971191,-8.994999885559082 -15.029999732971191,-8.994999885559082 C-15.029999732971191,-8.994999885559082 -15.90999984741211,-19.66900062561035 -15.90999984741211,-19.66900062561035 C-15.965999603271484,-20.354000091552734 -16.566999435424805,-20.861000061035156 -17.25,-20.804000854492188 C-17.25,-20.804000854492188 -18.538000106811523,-20.695999145507812 -18.538000106811523,-20.695999145507812 C-19.031999588012695,-20.65399932861328 -19.454999923706055,-20.322999954223633 -19.61199951171875,-19.85300064086914 C-19.61199951171875,-19.85300064086914 -21.753000259399414,-9.21500015258789 -22.26799964904785,-8.331999778747559 C-23.06999969482422,-6.959000110626221 -30.993999481201172,-0.3540000021457672 -30.993999481201172,-0.3540000021457672 C-31.326000213623047,0.014000000432133675 -31.4060001373291,0.5450000166893005 -31.198999404907227,0.9950000047683716 C-31.198999404907227,0.9950000047683716 -30.65999984741211,2.1710000038146973 -30.65999984741211,2.1710000038146973 C-30.375,2.7939999103546143 -29.63599967956543,3.066999912261963 -29.01300048828125,2.7799999713897705 C-29.01300048828125,2.7799999713897705 -19.285999298095703,-1.7029999494552612 -19.285999298095703,-1.7029999494552612 C-19.285999298095703,-1.7029999494552612 -19.32699966430664,-1.7389999628067017 -19.32699966430664,-1.7389999628067017 C-19.072999954223633,-1.5529999732971191 -18.83099937438965,-1.3680000305175781 -18.56599998474121,-1.1820000410079956 C-17.711999893188477,-0.5839999914169312 -16.81599998474121,-0.01899999938905239 -15.881999969482422,0.4869999885559082 C-15.881999969482422,0.4869999885559082 -6.505000114440918,6.126999855041504 -6.505000114440918,6.126999855041504 C-6.505000114440918,6.126999855041504 -23.534000396728516,22.257999420166016 -23.534000396728516,22.257999420166016 C-23.895999908447266,22.566999435424805 -24.049999237060547,23.058000564575195 -23.92799949645996,23.518999099731445 C-23.92799949645996,23.518999099731445 -23.576000213623047,24.856000900268555 -23.576000213623047,24.856000900268555 C-23.381000518798828,25.597999572753906 -22.562999725341797,25.986000061035156 -21.864999771118164,25.670000076293945z"></path>
      </g>
      <animateMotion repeatCount="indefinite" dur="5s"><mpath href="#ruta-plane-path"/></animateMotion>
    </g>
  </g>
</svg>