<svg xmlns="http://www.w3.org/2000/svg" viewBox="0 0 652 652" width="652" height="652" preserveAspectRatio="xMidYMid meet" style="width:100%;height:100%;transform:translate3d(0,0,0)"><defs><clipPath id="__lottie_element_74"><rect width="652" height="652" x="0" y="0"></rect></clipPath><filter id="__lottie_element_83" filterUnits="objectBoundingBox" x="-100%" y="-100%" width="400%" height="400%"><feGaussianBlur in="SourceAlpha" result="drop_shadow_1" stdDeviation="7.5"></feGaussianBlur><feOffset dx="0" dy="0" in="drop_shadow_1" result="drop_shadow_2"></feOffset><feFlood flood-color="#000000" flood-opacity="0.5" result="drop_shadow_3"></feFlood><feComposite in="drop_shadow_3" in2="drop_shadow_2" operator="in" result="drop_shadow_4"></feComposite><feMerge><feMergeNode></feMergeNode><feMergeNode in="SourceGraphic"></feMergeNode></feMerge></filter></defs><g clip-path="url(#__lottie_element_74)"><g filter="url(#__lottie_element_83)" transform="matrix(1,0,0,1,0,0)" opacity="1" style="display:block"><g opacity="1" transform="matrix(1,0,0,1,329.5,306.5)"><path fill="rgb(214,182,80)" fill-opacity="0" d=" M294.5,-256.5 C294.5,-256.5 294.5,256.5 294.5,256.5 C294.5,256.5 -294.5,256.5 -294.5,256.5 C-294.5,256.5 -294.5,-256.5 -294.5,-256.5 C-294.5,-256.5 294.5,-256.5 294.5,-256.5z"></path><path stroke-linecap="butt" stroke-linejoin="miter" fill-opacity="0" stroke-miterlimit="4" stroke="rgb(237,232,223)" stroke-opacity="1" stroke-width="0" d=" M294.5,-256.5 C294.5,-256.5 294.5,256.5 294.5,256.5 C294.5,256.5 -294.5,256.5 -294.5,256.5 C-294.5,256.5 -294.5,-256.5 -294.5,-256.5 C-294.5,-256.5 294.5,-256.5 294.5,-256.5z"></path></g><g opacity="1" transform="matrix(1,0,0,1,324.6449890136719,301.04400634765625)"><path fill="rgb(237,232,223)" fill-opacity="1" d=" M186.53700256347656,128.80499267578125 C144.33299255371094,184.73899841308594 73.43800354003906,217.96400451660156 -0.6620000004768372,217.96400451660156 C-121.04199981689453,217.96400451660156 -228.0679931640625,125.96800231933594 -228.0679931640625,5.5929999351501465 C-228.0679931640625,-93.71199798583984 -173.83099365234375,-164.9250030517578 -99.1449966430664,-197.71499633789062 C-78.9280014038086,-206.58900451660156 -57.2140007019043,-212.6529998779297 -34.67300033569336,-215.69000244140625 C-23.51099967956543,-217.19700622558594 -12.145999908447266,-217.96400451660156 -0.6620000004768372,-217.96400451660156 C29.201000213623047,-217.96400451660156 57.85100173950195,-211.9499969482422 84.14099884033203,-201.06900024414062 C163.83299255371094,-168.1020050048828 221.80099487304688,-90.427001953125 225.83599853515625,0 C228.06900024414062,50.08300018310547 212.89999389648438,93.87300109863281 186.53700256347656,128.80499267578125z"></path></g><g opacity="1" transform="matrix(1,0,0,1,263.1700134277344,395.4150085449219)"><path fill="rgb(219,215,209)" fill-opacity="1" d=" M-64.53500366210938,-75.24400329589844 C-64.53500366210938,-75.24400329589844 -56.04600143432617,-55.564998626708984 -64.53500366210938,-44.76100158691406 C-73.02400207519531,-33.957000732421875 -73.7959976196289,-13.505999565124512 -56.81800079345703,-0.0010000000474974513 C-39.84000015258789,13.503999710083008 -32.507999420166016,14.661999702453613 -36.367000579833984,28.16699981689453 C-40.22600173950195,41.672000885009766 -44.277000427246094,58.167999267578125 -37.9109992980957,65.11299896240234 C-31.54400062561035,72.05899810791016 -28.93899917602539,88.55500030517578 -14.758999824523926,89.71199798583984 C-0.578000009059906,90.87000274658203 -15.916000366210938,78.4260025024414 -6.656000137329102,66.8499984741211 C2.6050000190734863,55.27399826049805 38.4900016784668,52.95899963378906 35.016998291015625,30.09600067138672 C31.545000076293945,7.234000205993652 64.53500366210938,5.208000183105469 69.16500091552734,-9.84000015258789 C73.7959976196289,-24.888999938964844 54.117000579833984,-34.150001525878906 37.62099838256836,-32.992000579833984 C21.125,-31.833999633789062 31.253999710083008,-57.590999603271484 13.312000274658203,-61.35300064086914 C-4.63100004196167,-65.11499786376953 -13.022000312805176,-79.58499908447266 -23.44099998474121,-77.8489990234375 C-33.85900115966797,-76.11199951171875 -45.43600082397461,-90.87100219726562 -57.30099868774414,-86.24099731445312 C-69.16600036621094,-81.61100006103516 -64.53500366210938,-75.24400329589844 -64.53500366210938,-75.24400329589844z"></path></g><g opacity="1" transform="matrix(1,0,0,1,204.82000732421875,224.5260009765625)"><path fill="rgb(219,215,209)" fill-opacity="1" d=" M-36.28300094604492,-61.7869987487793 C-36.28300094604492,-61.7869987487793 -48.63100051879883,-52.138999938964844 -52.10300064086914,-36.70500183105469 C-55.57600021362305,-21.270000457763672 -72.94000244140625,-11.625 -75.64099884033203,9.597999572753906 C-78.34200286865234,30.81999969482422 -66.09100341796875,31.399999618530273 -70.43199920654297,42.97600173950195 C-74.77300262451172,54.55099868774414 -69.37799835205078,60.3390007019043 -56.159000396728516,66.12699890136719 C-42.93899917602539,71.91500091552734 -41.78200149536133,80.81500244140625 -33.96799850463867,83.74400329589844 C-26.15399932861328,86.67400360107422 -28.18000030517578,94.48699951171875 -25.575000762939453,95.3550033569336 C-22.97100067138672,96.2239990234375 -24.128000259399414,89.47100067138672 -21.427000045776367,80.59600067138672 C-18.72599983215332,71.72100067138672 -16.410999298095703,68.05599975585938 -26.250999450683594,68.44200134277344 C-36.09000015258789,68.8270034790039 -33.00299835205078,60.917999267578125 -29.145000457763672,55.902000427246094 C-25.285999298095703,50.88600158691406 -34.547000885009766,50.112998962402344 -37.63399887084961,50.8849983215332 C-40.720001220703125,51.65700149536133 -39.94900131225586,65.93399810791016 -46.314998626708984,59.18199920654297 C-52.68199920654297,52.42900085449219 -55.76900100708008,44.71200180053711 -50.560001373291016,35.83700180053711 C-45.35100173950195,26.961999893188477 -34.1609992980957,34.29399871826172 -26.250999450683594,23.683000564575195 C-18.34000015258789,13.071000099182129 -7.150000095367432,17.315000534057617 -6.572000026702881,25.804000854492188 C-5.993000030517578,34.292999267578125 9.82800006866455,34.486000061035156 12.529000282287598,23.29599952697754 C15.229999542236328,12.105999946594238 14.071999549865723,-7.379000186920166 30.277999877929688,-10.562999725341797 C46.48500061035156,-13.746000289916992 78.34200286865234,-29.952999114990234 58.071998596191406,-36.60900115966797 C37.803001403808594,-43.26599884033203 45.90599822998047,-57.15599822998047 35.48699951171875,-56.2869987487793 C25.069000244140625,-55.41899871826172 29.121000289916992,-39.792999267578125 17.545000076293945,-44.42300033569336 C5.968999862670898,-49.05400085449219 -2.4240000247955322,-61.49700164794922 13.782999992370605,-64.96900177001953 C29.98900032043457,-68.44200134277344 36.64500045776367,-86.38500213623047 24.201000213623047,-85.22699737548828 C11.756999969482422,-84.06999969482422 9.730999946594238,-96.2239990234375 2.2070000171661377,-94.7770004272461 C-5.317999839782715,-93.33000183105469 -13.130999565124512,-75.0979995727539 -20.94499969482422,-70.46800231933594 C-28.759000778198242,-65.83799743652344 -36.28300094604492,-61.7869987487793 -36.28300094604492,-61.7869987487793z"></path></g><g opacity="1" transform="matrix(1,0,0,1,285.8389892578125,148.8489990234375)"><path fill="rgb(219,215,209)" fill-opacity="1" d=" M-12.925999641418457,-21.802000045776367 C-12.925999641418457,-21.802000045776367 3.0869998931884766,-26.23900032043457 10.032999992370605,-21.802000045776367 C16.97800064086914,-17.364999771118164 27.781999588012695,-4.823999881744385 18.71500015258789,-0.1940000057220459 C9.647000312805176,4.436999797821045 0.18700000643730164,5.980000019073486 4.626999855041504,14.661999702453613 C9.067999839782715,23.3439998626709 -8.102999687194824,26.238000869750977 -12.925999641418457,14.661999702453613 C-17.749000549316406,3.0859999656677246 -17.749000549316406,-1.1579999923706055 -22.764999389648438,-6.559999942779541 C-27.781999588012695,-11.963000297546387 -25.659000396728516,-23.538000106811523 -12.925999641418457,-21.802000045776367z"></path></g><g opacity="1" transform="matrix(1,0,0,1,430.3840026855469,264.9119873046875)"><path fill="rgb(219,215,209)" fill-opacity="1" d=" M80.7969970703125,164.93699645996094 C14.53600025177002,147.56199645996094 69.48600006103516,120.29100036621094 46.263999938964844,88.91699981689453 C33.02799987792969,71.03800201416016 56.58100128173828,49.527000427246094 41.525001525878906,46.56800079345703 C32.78799819946289,44.85200119018555 12.675000190734863,67.1709976196289 1.0460000038146973,46.56800079345703 C-10.57800006866455,25.969999313354492 -31.249000549316406,25.833999633789062 -37.277000427246094,38.32099914550781 C-43.308998107910156,50.80699920654297 -68.71399688720703,59.42300033569336 -85.38600158691406,50.375999450683594 C-102.06199645996094,41.334999084472656 -92.39900207519531,29.27899932861328 -106.8239974975586,19.801000595092773 C-121.25399780273438,10.32800006866455 -122.3290023803711,-4.741000175476074 -106.8239974975586,-16.3700008392334 C-91.322998046875,-27.999000549316406 -98.427001953125,-44.79399871826172 -75.1729965209961,-39.624000549316406 C-51.91999816894531,-34.45800018310547 -56.441001892089844,-88.06900024414062 -56.441001892089844,-88.06900024414062 C-56.79499816894531,-97.44200134277344 -47.72100067138672,-99.0530014038086 -52.89099884033203,-107.77300262451172 C-58.05699920654297,-116.49199676513672 -72.59100341796875,-109.38899993896484 -80.34300231933594,-128.76600646972656 C-88.09100341796875,-148.14300537109375 -68.06999969482422,-159.77200317382812 -51.91999816894531,-157.87899780273438 C-47.2130012512207,-157.3300018310547 -35.78799819946289,-160.625 -21.599000930786133,-164.93699645996094 C58.09299850463867,-131.97000122070312 116.06099700927734,-54.29399871826172 120.09600067138672,36.132999420166016 C122.3290023803711,86.21600341796875 107.16000366210938,130.0050048828125 80.7969970703125,164.93699645996094z"></path></g><g opacity="1" transform="matrix(1,0,0,1,229.58599853515625,281.9830017089844)"><path fill="rgb(219,215,209)" fill-opacity="1" d=" M-26.240999221801758,-6.0929999351501465 C-26.240999221801758,-6.0929999351501465 -12.871000289916992,-13.539999961853027 -5.763000011444092,-7.616000175476074 C1.3459999561309814,-1.6929999589920044 4.392000198364258,2.200000047683716 14.885000228881836,0 C25.378000259399414,-2.200000047683716 32.486000061035156,2.0309998989105225 25.715999603271484,5.077000141143799 C18.94700050354004,8.123000144958496 3.0380001068115234,13.538999557495117 -4.239999771118164,7.107999801635742 C-11.517000198364258,0.6769999861717224 -32.48500061035156,-3.496000051498413 -26.240999221801758,-6.0929999351501465z"></path></g><g opacity="1" transform="matrix(1,0,0,1,261.7330017089844,297.5530090332031)"><path fill="rgb(219,215,209)" fill-opacity="1" d=" M-4.568999767303467,2.36899995803833 C-4.568999767303467,2.36899995803833 4.9079999923706055,4.060999870300293 7.107999801635742,0.16899999976158142 C9.307999610900879,-3.7239999771118164 4.908999919891357,0 1.2699999809265137,-2.0309998989105225 C-2.36899995803833,-4.061999797821045 -9.307999610900879,-2.0309998989105225 -4.568999767303467,2.36899995803833z"></path></g></g><g id="orbita" transform="matrix(1,0,0,1,0,0)" opacity="1" style="display:block"><g opacity="1" transform="matrix(1,0,0,1,329.0260009765625,352.4519958496094)"><path id="orbita-path" stroke-linecap="butt" stroke-linejoin="miter" fill-opacity="0" stroke-miterlimit="10" stroke-dasharray=" 5.053 5.053" stroke-dashoffset="0" stroke="rgb(0,99,165)" stroke-opacity="1" stroke-width="1.88" d=" M211.7270050048828,-116.76100158691406 C256.1029968261719,-106.08999633789062 284.7909851074219,-87.64600372314453 288.99700927734375,-62.933998107910156 C298.64599609375,-6.261000156402588 175.87600708007812,61.91299819946289 14.784000396728516,89.33699798583984 C-146.3090057373047,116.76100158691406 -284.72198486328125,93.0510025024414 -294.3699951171875,36.37799835205078 C-298.64599609375,11.260000228881836 -276.9079895019531,-16.118999481201172 -237.35000610351562,-41.207000732421875"></path></g></g><g id="heart-animation" transform="matrix(1,0,0,1,0,0)" opacity="1" style="display:block"><g opacity="1" transform="matrix(1,0,0,1,320,360)"><path fill="rgb(196,65,33)" fill-opacity="1" d=" M27.0939998626709,-8.229000091552734 C27.0939998626709,-8.229000091552734 27.0939998626709,-5.828999996185303 27.0939998626709,-5.828999996185303 C27.06399917602539,-5.7129998207092285 27.017000198364258,-5.5980000495910645 27.0049991607666,-5.479000091552734 C26.849000930786133,-3.947999954223633 26.45199966430664,-2.4769999980926514 25.89299964904785,-1.0470000505447388 C24.538999557495117,2.4170000553131104 22.43199920654297,5.4029998779296875 19.98200035095215,8.152999877929688 C14.595000267028809,14.201000213623047 8.204999923706055,19.014999389648438 1.3480000495910645,23.246000289916992 C0.7269999980926514,23.628999710083008 0.11100000143051147,23.606000900268555 -0.5139999985694885,23.225000381469727 C-6.314000129699707,19.687999725341797 -11.751999855041504,15.677000045776367 -16.600000381469727,10.897000312805176 C-19.594999313354492,7.945000171661377 -22.290000915527344,4.752999782562256 -24.19099998474121,0.9629999995231628 C-27.0939998626709,-4.826000213623047 -26.9950008392334,-10.541999816894531 -23.50200080871582,-16.03499984741211 C-21.06800079345703,-19.86199951171875 -17.545000076293945,-22.191999435424805 -12.973999977111816,-22.59600067138672 C-8.12600040435791,-23.024999618530273 -4.171000003814697,-21.149999618530273 -1.0299999713897705,-17.485000610351562 C-0.5040000081062317,-16.871000289916992 -0.05700000002980232,-16.190000534057617 0.45100000500679016,-15.506999969482422 C0.5389999747276306,-15.630000114440918 0.6119999885559082,-15.741000175476074 0.6940000057220459,-15.845999717712402 C1.3339999914169312,-16.666000366210938 1.899999976158142,-17.559999465942383 2.630000114440918,-18.291000366210938 C6.46999979019165,-22.132999420166016 11.053999900817871,-23.628999710083008 16.32900047302246,-22.106000900268555 C21.674999237060547,-20.562000274658203 24.875999450683594,-16.774999618530273 26.451000213623047,-11.538000106811523 C26.773000717163086,-10.467000007629395 26.885000228881836,-9.333999633789062 27.0939998626709,-8.229000091552734z"></path><animateMotion repeatCount="indefinite" dur="5s"><mpath href="#orbita-path"/></animateMotion></g></g></g></svg>