<svg xmlns="http://www.w3.org/2000/svg" viewBox="0 0 1921 313" width="1921" height="313" preserveAspectRatio="xMidYMid meet" style="width: 100%; height: 100%; transform: translate3d(0px, 0px, 0px);">
  <defs>
    <clipPath id="__lottie_element_90">
      <rect width="1921" height="313" x="0" y="0"></rect>
    </clipPath>
  </defs>
  <g clip-path="url(#__lottie_element_90)">
    <g transform="matrix(1,0,0,1,0,-27.30645751953125)" opacity="1" style="display: block;">
      <g opacity="1" transform="matrix(1,0,0,1,1573.196044921875,203.26199340820312)">
        <path fill="rgb(255, 255, 255)" fill-opacity="1" d=" M-8.291000366210938,77.7750015258789 C-10.958999633789062,78.96700286865234 -13.312000274658203,79.93599700927734 -15.592000007629395,81.05400085449219 C-19.799999237060547,83.11599731445312 -23.933000564575195,85.33100128173828 -28.155000686645508,87.36399841308594 C-38.382999420166016,92.29000091552734 -49.1510009765625,95.3280029296875 -60.52399826049805,95.572998046875 C-73.48400115966797,95.85199737548828 -85.99800109863281,93.66899871826172 -97.50299835205078,87.30500030517578 C-101.22699737548828,85.24500274658203 -104.8479995727539,82.99600219726562 -108.47200012207031,80.76200103759766 C-111.99299621582031,78.59200286865234 -115.21099853515625,76.03900146484375 -117.94400024414062,72.9000015258789 C-118.67900085449219,72.05500030517578 -119.56199645996094,71.34100341796875 -120.2509994506836,70.68599700927734 C-127.6709976196289,71.40899658203125 -134.85299682617188,72.2030029296875 -142.052001953125,72.78500366210938 C-150.218994140625,73.44499969482422 -158.21299743652344,72.45600128173828 -165.968994140625,69.73999786376953 C-168.79600524902344,68.75 -171.48199462890625,67.49800109863281 -173.8800048828125,65.66300201416016 C-177.3209991455078,63.02899932861328 -179.35499572753906,59.60100173950195 -179.98300170898438,55.30500030517578 C-180.6820068359375,50.52000045776367 -180.072998046875,45.933998107910156 -177.8209991455078,41.6510009765625 C-173.61000061035156,33.64400100708008 -167.87600708007812,27.1560001373291 -159.32400512695312,23.566999435424805 C-158.9459991455078,23.409000396728516 -158.61000061035156,23.149999618530273 -158.0489959716797,22.81399917602539 C-158.27000427246094,21.183000564575195 -158.49400329589844,19.524999618530273 -158.718994140625,17.867000579833984 C-160.16200256347656,7.23799991607666 -156.81300354003906,-1.7269999980926514 -149.26300048828125,-9.20199966430664 C-146.61000061035156,-11.829999923706055 -143.48800659179688,-13.782999992370605 -140.04800415039062,-15.23799991607666 C-135.60499572753906,-17.118000030517578 -131.03199768066406,-17.683000564575195 -126.29399871826172,-16.64900016784668 C-125.73999786376953,-16.527999877929688 -125.19999694824219,-16.336999893188477 -124.64399719238281,-16.229999542236328 C-124.26100158691406,-16.1560001373291 -123.86100006103516,-16.172000885009766 -123.18199920654297,-16.128999710083008 C-123.19300079345703,-17.216999053955078 -123.1259994506836,-18.16699981689453 -123.2239990234375,-19.099000930786133 C-123.89900207519531,-25.499000549316406 -123.89199829101562,-31.891000747680664 -122.38899993896484,-38.16699981689453 C-121.4990005493164,-41.88199996948242 -120.42400360107422,-45.59600067138672 -118.9729995727539,-49.12099838256836 C-117.2490005493164,-53.308998107910156 -115.27899932861328,-57.43899917602539 -112.98600006103516,-61.34199905395508 C-100.12799835205078,-83.22799682617188 -80.46099853515625,-94.39299774169922 -55.64500045776367,-96.9800033569336 C-47.0890007019043,-97.87200164794922 -38.65700149536133,-96.65899658203125 -30.49799919128418,-93.69100189208984 C-22.292999267578125,-90.70500183105469 -15.392999649047852,-85.93599700927734 -9.776000022888184,-79.26699829101562 C-5.056000232696533,-73.66400146484375 -1.4880000352859497,-67.38899993896484 1.0219999551773071,-60.53200149536133 C2.877000093460083,-55.46699905395508 4.500999927520752,-50.31800079345703 6.285999774932861,-45.22700119018555 C6.928999900817871,-43.391998291015625 7.366000175476074,-41.44499969482422 8.708999633789062,-39.678001403808594 C9.574999809265137,-40.37900161743164 10.397000312805176,-40.926998138427734 11.07800006866455,-41.6150016784668 C19.349000930786133,-49.96799850463867 29.51300048828125,-54.13600158691406 41.06800079345703,-55.27299880981445 C50.24399948120117,-56.17499923706055 59.2130012512207,-55.527000427246094 67.8239974975586,-51.90399932861328 C72.74500274658203,-49.83300018310547 77.03700256347656,-46.869998931884766 80.65699768066406,-42.96699905395508 C85.8489990234375,-37.36899948120117 89.61699676513672,-30.91699981689453 92.11000061035156,-23.694000244140625 C94.8030014038086,-15.890000343322754 94.38300323486328,-8.04699993133545 92.59100341796875,-0.16300000250339508 C91.93399810791016,2.7260000705718994 91.28299713134766,5.616000175476074 90.66899871826172,8.333000183105469 C91.26300048828125,9.317000389099121 92.00199890136719,9.197999954223633 92.68299865722656,9.076000213623047 C100.53399658203125,7.664000034332275 108.4530029296875,7.000999927520752 116.41899871826172,7.245999813079834 C129.80599975585938,7.6579999923706055 143.08099365234375,8.85099983215332 155.7239990234375,13.78499984741211 C161.7429962158203,16.134000778198242 167.21499633789062,19.354000091552734 171.7779998779297,23.988000869750977 C176.61399841308594,28.899999618530273 179.69700622558594,34.63399887084961 180.2779998779297,41.63999938964844 C180.68299865722656,46.53200149536133 179.46099853515625,50.972999572753906 176.88400268554688,55.018001556396484 C171.0279998779297,64.20899963378906 162.56500244140625,69.37999725341797 151.7899932861328,70.77200317382812 C144.85299682617188,71.66899871826172 137.89500427246094,71.2229995727539 130.94400024414062,70.96399688720703 C128.10499572753906,70.85900115966797 125.26300048828125,70.79299926757812 122.43299865722656,70.572998046875 C120.60700225830078,70.43199920654297 119.16600036621094,71.02400207519531 117.75,72.11499786376953 C112.23300170898438,76.36299896240234 106.60399627685547,80.43800354003906 100.49500274658203,83.83499908447266 C85.45800018310547,92.19499969482422 69.37699890136719,96.7490005493164 52.18899917602539,97.48600006103516 C43.202999114990234,97.87200164794922 34.308998107910156,97.39700317382812 25.520999908447266,95.33899688720703 C18.305999755859375,93.6500015258789 11.293999671936035,91.41799926757812 4.710999965667725,87.96800231933594 C-0.10400000214576721,85.44400024414062 -4.455999851226807,82.2959976196289 -8.291000366210938,77.7750015258789z"></path>
      </g>
    </g>
    <g transform="matrix(1,0,0,1,0,0.53973388671875)" opacity="1" style="display: block;">
      <g opacity="1" transform="matrix(1,0,0,1,1292.8909912109375,123.43299865722656)">
        <path fill="rgb(255, 255, 255)" fill-opacity="1" d=" M-3.5160000324249268,65.66500091552734 C-8.430000305175781,68.23999786376953 -13.664999961853027,69.90699768066406 -19.051000595092773,71.16799926757812 C-25.611000061035156,72.7040023803711 -32.25,73.05899810791016 -38.957000732421875,72.77100372314453 C-51.78799819946289,72.22100067138672 -63.79199981689453,68.82099914550781 -75.01599884033203,62.58100128173828 C-79.57599639892578,60.04499816894531 -83.77799987792969,57.00400161743164 -87.89600372314453,53.83300018310547 C-88.9540023803711,53.018001556396484 -90.02799987792969,52.57600021362305 -91.39099884033203,52.68199920654297 C-93.50299835205078,52.845001220703125 -95.6259994506836,52.89400100708008 -97.74500274658203,52.972999572753906 C-102.93399810791016,53.16600036621094 -108.12799835205078,53.49800109863281 -113.30599975585938,52.82899856567383 C-121.3489990234375,51.790000915527344 -127.66500091552734,47.930999755859375 -132.03700256347656,41.06999969482422 C-133.9600067138672,38.04999923706055 -134.87399291992188,34.73500061035156 -134.5709991455078,31.08300018310547 C-134.13699340820312,25.85300064086914 -131.83599853515625,21.573999404907227 -128.2259979248047,17.906999588012695 C-124.81999969482422,14.447999954223633 -120.73600006103516,12.043999671936035 -116.24199676513672,10.289999961853027 C-106.80500030517578,6.60699987411499 -96.89600372314453,5.7170000076293945 -86.90299987792969,5.409999847412109 C-80.95600128173828,5.2270002365112305 -75.04499816894531,5.7210001945495605 -69.18499755859375,6.775000095367432 C-68.6760025024414,6.866000175476074 -68.125,6.955999851226807 -67.68099975585938,6.2210001945495605 C-68.13999938964844,4.192999839782715 -68.625,2.0350000858306885 -69.11499786376953,-0.12200000137090683 C-70.4520034790039,-6.006999969482422 -70.76699829101562,-11.859999656677246 -68.75700378417969,-17.68600082397461 C-66.89600372314453,-23.07699966430664 -64.08399963378906,-27.893999099731445 -60.20800018310547,-32.071998596191406 C-57.50600051879883,-34.986000061035156 -54.301998138427734,-37.19900131225586 -50.62799835205078,-38.744998931884766 C-44.20000076293945,-41.44900131225586 -37.505001068115234,-41.93199920654297 -30.6560001373291,-41.257999420166016 C-22.0310001373291,-40.409000396728516 -14.442999839782715,-37.29800033569336 -8.269000053405762,-31.062999725341797 C-7.761000156402588,-30.548999786376953 -7.145999908447266,-30.141000747680664 -6.5,-29.617000579833984 C-5.497000217437744,-30.93600082397461 -5.171999931335449,-32.39099884033203 -4.691999912261963,-33.7599983215332 C-3.359999895095825,-37.560001373291016 -2.1470000743865967,-41.40299987792969 -0.7630000114440918,-45.183998107910156 C1.1109999418258667,-50.301998138427734 3.7739999294281006,-54.98699951171875 7.296999931335449,-59.16899871826172 C11.489999771118164,-64.14700317382812 16.641000747680664,-67.70700073242188 22.766000747680664,-69.93599700927734 C28.856000900268555,-72.1510009765625 35.150001525878906,-73.05799865722656 41.5359992980957,-72.39199829101562 C60.06100082397461,-70.46099853515625 74.74199676513672,-62.125 84.33999633789062,-45.78799819946289 C86.0510025024414,-42.875 87.52200317382812,-39.792999267578125 88.80899810791016,-36.66699981689453 C89.89199829101562,-34.0359992980957 90.69599914550781,-31.26300048828125 91.35900115966797,-28.489999771118164 C92.48100280761719,-23.80500030517578 92.48600006103516,-19.033000946044922 91.98200225830078,-14.255000114440918 C91.90899658203125,-13.559000015258789 91.95899963378906,-12.85099983215332 91.95099639892578,-12.038000106811523 C92.45700073242188,-12.069999694824219 92.75599670410156,-12.0600004196167 93.04199981689453,-12.114999771118164 C93.45700073242188,-12.194999694824219 93.86000061035156,-12.338000297546387 94.27400207519531,-12.428000450134277 C97.81099700927734,-13.199000358581543 101.2249984741211,-12.777999877929688 104.54199981689453,-11.37399959564209 C107.10900115966797,-10.288000106811523 109.43800354003906,-8.829000473022461 111.41899871826172,-6.868000030517578 C117.05500030517578,-1.2879999876022339 119.55599975585938,5.4039998054504395 118.47899627685547,13.338000297546387 C118.31099700927734,14.576000213623047 118.14299774169922,15.812999725341797 117.97899627685547,17.0310001373291 C118.39700317382812,17.2810001373291 118.64700317382812,17.474000930786133 118.92900085449219,17.591999053955078 C125.31300354003906,20.270999908447266 129.59300231933594,25.114999771118164 132.73699951171875,31.091999053955078 C134.41799926757812,34.28900146484375 134.8730010986328,37.71200180053711 134.35000610351562,41.284000396728516 C133.8820037841797,44.49100112915039 132.36399841308594,47.04999923706055 129.7949981689453,49.01599884033203 C128.0050048828125,50.38600158691406 126.0009994506836,51.32099914550781 123.89099884033203,52.060001373291016 C118.10099792480469,54.08700180053711 112.13300323486328,54.82500076293945 106.03700256347656,54.33300018310547 C100.66300201416016,53.89799880981445 95.302001953125,53.305999755859375 89.76300048828125,52.76599884033203 C89.2490005493164,53.25400161743164 88.58899688720703,53.78799819946289 88.04000091552734,54.417999267578125 C86,56.76100158691406 83.5989990234375,58.66600036621094 80.97000122070312,60.2859992980957 C78.26499938964844,61.95399856567383 75.56199645996094,63.632999420166016 72.78199768066406,65.1709976196289 C64.19400024414062,69.9209976196289 54.85300064086914,71.55000305175781 45.17900085449219,71.34200286865234 C36.68899917602539,71.15899658203125 28.650999069213867,68.89199829101562 21.016000747680664,65.21499633789062 C17.864999771118164,63.698001861572266 14.779999732971191,62.04399871826172 11.637999534606934,60.505001068115234 C9.937000274658203,59.67100143432617 8.180999755859375,58.946998596191406 6.189000129699707,58.05699920654297 C3.3259999752044678,61.43199920654297 0.07900000363588333,63.78099822998047 -3.5160000324249268,65.66500091552734z"></path>
      </g>
    </g>
    <g transform="matrix(1,0,0,1,0,-21.3602294921875)" opacity="1" style="display: block;">
      <g opacity="1" transform="matrix(1,0,0,1,852.2780151367188,157.55799865722656)">
        <path fill="rgb(255, 255, 255)" fill-opacity="1" d=" M-3.5160000324249268,65.66500091552734 C-8.430000305175781,68.23999786376953 -13.664999961853027,69.90599822998047 -19.051000595092773,71.16699981689453 C-25.611000061035156,72.7030029296875 -32.24800109863281,73.05799865722656 -38.95600128173828,72.7699966430664 C-51.7869987487793,72.22000122070312 -63.79199981689453,68.81999969482422 -75.01599884033203,62.58000183105469 C-79.57599639892578,60.04399871826172 -83.77799987792969,57.00199890136719 -87.89600372314453,53.83100128173828 C-88.9540023803711,53.016998291015625 -90.02799987792969,52.57500076293945 -91.39099884033203,52.680999755859375 C-93.50299835205078,52.84400177001953 -95.6259994506836,52.89400100708008 -97.74500274658203,52.972999572753906 C-102.93399810791016,53.16600036621094 -108.12699890136719,53.49800109863281 -113.30500030517578,52.82899856567383 C-121.3479995727539,51.790000915527344 -127.66500091552734,47.93000030517578 -132.03700256347656,41.069000244140625 C-133.9600067138672,38.04899978637695 -134.8730010986328,34.73400115966797 -134.57000732421875,31.082000732421875 C-134.13600158691406,25.85300064086914 -131.83599853515625,21.572999954223633 -128.2259979248047,17.9060001373291 C-124.81999969482422,14.446999549865723 -120.73600006103516,12.043000221252441 -116.24199676513672,10.289999961853027 C-106.80500030517578,6.60699987411499 -96.89600372314453,5.7170000076293945 -86.90299987792969,5.409999847412109 C-80.95600128173828,5.2270002365112305 -75.04499816894531,5.71999979019165 -69.18499755859375,6.77400016784668 C-68.6760025024414,6.864999771118164 -68.1240005493164,6.954999923706055 -67.68000030517578,6.21999979019165 C-68.13899993896484,4.191999912261963 -68.625,2.0350000858306885 -69.11499786376953,-0.12200000137090683 C-70.4520034790039,-6.006999969482422 -70.76699829101562,-11.861000061035156 -68.75700378417969,-17.687000274658203 C-66.89600372314453,-23.077999114990234 -64.08399963378906,-27.895000457763672 -60.20800018310547,-32.073001861572266 C-57.505001068115234,-34.98699951171875 -54.301998138427734,-37.19900131225586 -50.62799835205078,-38.744998931884766 C-44.20000076293945,-41.44900131225586 -37.505001068115234,-41.93299865722656 -30.6560001373291,-41.25899887084961 C-22.0310001373291,-40.40999984741211 -14.442000389099121,-37.29999923706055 -8.267999649047852,-31.06399917602539 C-7.760000228881836,-30.549999237060547 -7.145999908447266,-30.142000198364258 -6.5,-29.618000030517578 C-5.497000217437744,-30.937000274658203 -5.171999931335449,-32.39099884033203 -4.691999912261963,-33.7599983215332 C-3.359999895095825,-37.560001373291016 -2.1470000743865967,-41.40399932861328 -0.7630000114440918,-45.185001373291016 C1.1109999418258667,-50.303001403808594 3.7739999294281006,-54.987998962402344 7.296999931335449,-59.16999816894531 C11.489999771118164,-64.14800262451172 16.641000747680664,-67.70800018310547 22.766000747680664,-69.93699645996094 C28.856000900268555,-72.1520004272461 35.150001525878906,-73.05899810791016 41.5369987487793,-72.39299774169922 C60.06100082397461,-70.46199798583984 74.74299621582031,-62.125999450683594 84.34100341796875,-45.78900146484375 C86.052001953125,-42.875999450683594 87.52300262451172,-39.792999267578125 88.80999755859375,-36.66699981689453 C89.89299774169922,-34.0359992980957 90.69599914550781,-31.26300048828125 91.35900115966797,-28.489999771118164 C92.48100280761719,-23.80500030517578 92.48600006103516,-19.034000396728516 91.98200225830078,-14.255999565124512 C91.90899658203125,-13.560999870300293 91.95899963378906,-12.85200023651123 91.95099639892578,-12.038999557495117 C92.45700073242188,-12.071000099182129 92.75599670410156,-12.0600004196167 93.04199981689453,-12.114999771118164 C93.45700073242188,-12.194999694824219 93.86000061035156,-12.338000297546387 94.27400207519531,-12.428000450134277 C97.81099700927734,-13.199000358581543 101.2249984741211,-12.777999877929688 104.54199981689453,-11.37399959564209 C107.10900115966797,-10.288000106811523 109.43900299072266,-8.829000473022461 111.41899871826172,-6.868000030517578 C117.05500030517578,-1.2879999876022339 119.55599975585938,5.4029998779296875 118.47899627685547,13.336999893188477 C118.31099700927734,14.574999809265137 118.14299774169922,15.812999725341797 117.97899627685547,17.0310001373291 C118.39800262451172,17.2810001373291 118.64800262451172,17.474000930786133 118.93000030517578,17.591999053955078 C125.31400299072266,20.270999908447266 129.59300231933594,25.11400032043457 132.73699951171875,31.090999603271484 C134.41799926757812,34.28799819946289 134.87399291992188,37.71099853515625 134.3509979248047,41.28300094604492 C133.88299560546875,44.4900016784668 132.36399841308594,47.04999923706055 129.7949981689453,49.01599884033203 C128.0050048828125,50.38600158691406 126.0009994506836,51.31999969482422 123.89099884033203,52.058998107910156 C118.10099792480469,54.08599853515625 112.13300323486328,54.82400131225586 106.03700256347656,54.33100128173828 C100.66300201416016,53.89699935913086 95.302001953125,53.305999755859375 89.76300048828125,52.76599884033203 C89.2490005493164,53.25400161743164 88.58899688720703,53.7869987487793 88.04000091552734,54.41699981689453 C86,56.7599983215332 83.5999984741211,58.66600036621094 80.97100067138672,60.2859992980957 C78.26599884033203,61.95399856567383 75.56199645996094,63.632999420166016 72.78199768066406,65.1709976196289 C64.19400024414062,69.9209976196289 54.854000091552734,71.55000305175781 45.18000030517578,71.34200286865234 C36.689998626708984,71.15899658203125 28.650999069213867,68.89099884033203 21.016000747680664,65.21399688720703 C17.864999771118164,63.696998596191406 14.779999732971191,62.042999267578125 11.637999534606934,60.50400161743164 C9.937000274658203,59.66999816894531 8.182000160217285,58.94599914550781 6.190000057220459,58.055999755859375 C3.3269999027252197,61.430999755859375 0.07900000363588333,63.78099822998047 -3.5160000324249268,65.66500091552734z"></path>
      </g>
    </g>
    <g transform="matrix(1,0,0,1,0,10.842819213867188)" opacity="1" style="display: block;">
      <g opacity="1" transform="matrix(1,0,0,1,517.1959838867188,108.60600280761719)">
        <path fill="rgb(255, 255, 255)" fill-opacity="1" d=" M-8.291000366210938,77.7750015258789 C-10.958999633789062,78.96700286865234 -13.312000274658203,79.93599700927734 -15.592000007629395,81.05400085449219 C-19.799999237060547,83.11599731445312 -23.933000564575195,85.33100128173828 -28.155000686645508,87.36399841308594 C-38.382999420166016,92.29000091552734 -49.1510009765625,95.3290023803711 -60.52399826049805,95.5739974975586 C-73.48400115966797,95.85199737548828 -85.99800109863281,93.66799926757812 -97.50299835205078,87.30400085449219 C-101.22699737548828,85.24500274658203 -104.8479995727539,82.99600219726562 -108.47200012207031,80.76200103759766 C-111.99299621582031,78.59200286865234 -115.21099853515625,76.03900146484375 -117.94400024414062,72.9000015258789 C-118.67900085449219,72.05500030517578 -119.56199645996094,71.34100341796875 -120.2509994506836,70.68599700927734 C-127.6709976196289,71.40899658203125 -134.85299682617188,72.2030029296875 -142.052001953125,72.78500366210938 C-150.218994140625,73.44499969482422 -158.21400451660156,72.45600128173828 -165.968994140625,69.73999786376953 C-168.79600524902344,68.75 -171.48199462890625,67.49800109863281 -173.8800048828125,65.66300201416016 C-177.3209991455078,63.02899932861328 -179.35499572753906,59.60100173950195 -179.98300170898438,55.30500030517578 C-180.6820068359375,50.52000045776367 -180.072998046875,45.933998107910156 -177.8209991455078,41.6510009765625 C-173.61000061035156,33.64400100708008 -167.87600708007812,27.1560001373291 -159.32400512695312,23.566999435424805 C-158.9459991455078,23.409000396728516 -158.61000061035156,23.14900016784668 -158.0489959716797,22.81399917602539 C-158.27000427246094,21.183000564575195 -158.49400329589844,19.52400016784668 -158.718994140625,17.867000579833984 C-160.16200256347656,7.23799991607666 -156.81300354003906,-1.7259999513626099 -149.26300048828125,-9.20199966430664 C-146.61000061035156,-11.829000473022461 -143.48800659179688,-13.782999992370605 -140.04800415039062,-15.23799991607666 C-135.60499572753906,-17.118000030517578 -131.03199768066406,-17.683000564575195 -126.29399871826172,-16.64900016784668 C-125.73999786376953,-16.527999877929688 -125.19999694824219,-16.336999893188477 -124.64399719238281,-16.229999542236328 C-124.26100158691406,-16.156999588012695 -123.86100006103516,-16.172000885009766 -123.18199920654297,-16.128999710083008 C-123.19300079345703,-17.216999053955078 -123.1259994506836,-18.16699981689453 -123.2239990234375,-19.099000930786133 C-123.89900207519531,-25.5 -123.89199829101562,-31.891000747680664 -122.38899993896484,-38.16699981689453 C-121.4990005493164,-41.88199996948242 -120.42400360107422,-45.59600067138672 -118.9729995727539,-49.12099838256836 C-117.2490005493164,-53.308998107910156 -115.27899932861328,-57.43899917602539 -112.98600006103516,-61.34199905395508 C-100.12799835205078,-83.22799682617188 -80.46099853515625,-94.39299774169922 -55.64500045776367,-96.98100280761719 C-47.0890007019043,-97.87200164794922 -38.65700149536133,-96.65899658203125 -30.49799919128418,-93.69100189208984 C-22.292999267578125,-90.70500183105469 -15.392999649047852,-85.93499755859375 -9.776000022888184,-79.26599884033203 C-5.056000232696533,-73.66300201416016 -1.4889999628067017,-67.38899993896484 1.0210000276565552,-60.53200149536133 C2.875999927520752,-55.46699905395508 4.500999927520752,-50.31800079345703 6.285999774932861,-45.22700119018555 C6.928999900817871,-43.391998291015625 7.364999771118164,-41.44499969482422 8.708000183105469,-39.678001403808594 C9.574000358581543,-40.37900161743164 10.397000312805176,-40.926998138427734 11.07800006866455,-41.6150016784668 C19.349000930786133,-49.96799850463867 29.51300048828125,-54.13600158691406 41.06800079345703,-55.27299880981445 C50.24399948120117,-56.17499923706055 59.21200180053711,-55.527000427246094 67.822998046875,-51.90399932861328 C72.74400329589844,-49.83300018310547 77.03600311279297,-46.869998931884766 80.65599822998047,-42.96699905395508 C85.8479995727539,-37.369998931884766 89.61599731445312,-30.91699981689453 92.10900115966797,-23.694000244140625 C94.802001953125,-15.890000343322754 94.38300323486328,-8.04699993133545 92.59100341796875,-0.16300000250339508 C91.93399810791016,2.7260000705718994 91.28299713134766,5.616000175476074 90.66899871826172,8.331999778747559 C91.26300048828125,9.317000389099121 92.0009994506836,9.197999954223633 92.68199920654297,9.076000213623047 C100.53299713134766,7.664000034332275 108.4520034790039,7.001999855041504 116.41899871826172,7.247000217437744 C129.80599975585938,7.658999919891357 143.08099365234375,8.85200023651123 155.7239990234375,13.78600025177002 C161.7429962158203,16.135000228881836 167.21499633789062,19.354000091552734 171.7779998779297,23.988000869750977 C176.61399841308594,28.899999618530273 179.69700622558594,34.6349983215332 180.2779998779297,41.64099884033203 C180.68299865722656,46.53300094604492 179.4600067138672,50.9739990234375 176.88299560546875,55.018001556396484 C171.02699279785156,64.20999908447266 162.56399536132812,69.37999725341797 151.78900146484375,70.77200317382812 C144.8520050048828,71.66799926757812 137.8939971923828,71.2229995727539 130.9429931640625,70.96399688720703 C128.10400390625,70.85900115966797 125.26200103759766,70.79399871826172 122.43199920654297,70.5739974975586 C120.60600280761719,70.43299865722656 119.16600036621094,71.02400207519531 117.75,72.11499786376953 C112.23300170898438,76.36299896240234 106.60399627685547,80.43800354003906 100.49500274658203,83.83399963378906 C85.45800018310547,92.19499969482422 69.3759994506836,96.7490005493164 52.1879997253418,97.48600006103516 C43.20199966430664,97.87200164794922 34.308998107910156,97.39700317382812 25.520999908447266,95.33899688720703 C18.305999755859375,93.6500015258789 11.293000221252441,91.41799926757812 4.710000038146973,87.96800231933594 C-0.10499999672174454,85.44400024414062 -4.455999851226807,82.29499816894531 -8.291000366210938,77.7750015258789z"></path>
      </g>
    </g>
    <g transform="matrix(1,0,0,1,0,0)" opacity="1" style="display: block;">
      <g opacity="1" transform="matrix(1,0,0,1,960.1599731445312,203.04100036621094)">
        <path id="ruta-plane-path" stroke-linecap="butt" stroke-linejoin="miter" fill-opacity="0" stroke-miterlimit="10" stroke-dasharray=" 6.291 6.291" stroke-dashoffset="0" stroke="rgb(0,99,165)" stroke-opacity="1" stroke-width="2.341" d=" M-1022.5139770507812,-42.65299987792969 C-666.68798828125,-136.5709991455078 100.38099670410156,25.34600067138672 100.38099670410156,25.34600067138672 C569.4019775390625,136.5709991455078 1022.5150146484375,-45.233001708984375 1022.5150146484375,-45.233001708984375"></path>
      </g>
    </g>
    <g id="plane" transform="matrix(0.9999966025352478,-0.002616270212456584,0.002616270212456584,0.9999966025352478,1130.5458984375,132.83349609375)" opacity="1" style="display: block;">
      <g opacity="1" transform="matrix(1,0,0,1,-130,60)">
        <path fill="rgb(0,99,165)" fill-opacity="1" d=" M-10.795999526977539,29.124000549316406 C-10.795999526977539,29.124000549316406 5.942999839782715,4.394999980926514 5.942999839782715,4.394999980926514 C5.942999839782715,4.394999980926514 21.985000610351562,4.301000118255615 21.985000610351562,4.301000118255615 C25.67099952697754,4.301000118255615 29.753999710083008,1.8880000114440918 31.92300033569336,0.296999990940094 C32.819000244140625,-0.3610000014305115 32.78900146484375,-1.7000000476837158 31.863000869750977,-2.315999984741211 C29.625,-3.806999921798706 25.437000274658203,-6.034999847412109 21.7549991607666,-5.86899995803833 C21.7549991607666,-5.86899995803833 5.663000106811523,-5.234000205993652 5.663000106811523,-5.234000205993652 C5.663000106811523,-5.234000205993652 5.72599983215332,-5.236000061035156 5.72599983215332,-5.236000061035156 C5.72599983215332,-5.236000061035156 -12.11400032043457,-29.18600082397461 -12.11400032043457,-29.18600082397461 C-12.571999549865723,-29.802000045776367 -13.475000381469727,-29.856000900268555 -14.005000114440918,-29.301000595092773 C-14.005000114440918,-29.301000595092773 -14.961000442504883,-28.30299949645996 -14.961000442504883,-28.30299949645996 C-15.291000366210938,-27.95800018310547 -15.394000053405762,-27.45599937438965 -15.22700023651123,-27.007999420166016 C-15.22700023651123,-27.007999420166016 -8.145000457763672,-4.646999835968018 -8.145000457763672,-4.646999835968018 C-8.145000457763672,-4.646999835968018 -19.079999923706055,-4.256999969482422 -19.079999923706055,-4.256999969482422 C-20.14299964904785,-4.265999794006348 -21.200000762939453,-4.206999778747559 -22.236000061035156,-4.0960001945495605 C-22.55900001525879,-4.061999797821045 -22.858999252319336,-4.01800012588501 -23.17099952697754,-3.9790000915527344 C-23.17099952697754,-3.9790000915527344 -23.118999481201172,-3.990000009536743 -23.118999481201172,-3.990000009536743 C-23.118999481201172,-3.990000009536743 -29.457000732421875,-12.62399959564209 -29.457000732421875,-12.62399959564209 C-29.86199951171875,-13.178000450134277 -30.639999389648438,-13.295999526977539 -31.191999435424805,-12.888999938964844 C-31.191999435424805,-12.888999938964844 -32.233001708984375,-12.121999740600586 -32.233001708984375,-12.121999740600586 C-32.632999420166016,-11.82699966430664 -32.81999969482422,-11.324000358581543 -32.707000732421875,-10.840999603271484 C-32.707000732421875,-10.840999603271484 -28.96299934387207,-0.6570000052452087 -28.93899917602539,0.36500000953674316 C-28.902999877929688,1.9550000429153442 -32.196998596191406,11.729999542236328 -32.196998596191406,11.729999542236328 C-32.28799819946289,12.217000007629395 -32.077999114990234,12.713000297546387 -31.666000366210938,12.98799991607666 C-31.666000366210938,12.98799991607666 -30.590999603271484,13.706000328063965 -30.590999603271484,13.706000328063965 C-30.02199935913086,14.088000297546387 -29.25,13.934000015258789 -28.868999481201172,13.36400032043457 C-28.868999481201172,13.36400032043457 -22.92799949645996,4.452000141143799 -22.92799949645996,4.452000141143799 C-22.92799949645996,4.452000141143799 -22.98200035095215,4.442999839782715 -22.98200035095215,4.442999839782715 C-22.667999267578125,4.468999862670898 -22.364999771118164,4.5 -22.04199981689453,4.519999980926514 C-21.000999450683594,4.581999778747559 -19.941999435424805,4.5929999351501465 -18.881000518798828,4.535999774932861 C-18.881000518798828,4.535999774932861 -7.939000129699707,4.433000087738037 -7.939000129699707,4.433000087738037 C-7.939000129699707,4.433000087738037 -14.003999710083008,27.091999053955078 -14.003999710083008,27.091999053955078 C-14.151000022888184,27.545000076293945 -14.024999618530273,28.04400062561035 -13.680000305175781,28.371999740600586 C-13.680000305175781,28.371999740600586 -12.680000305175781,29.32699966430664 -12.680000305175781,29.32699966430664 C-12.125,29.85700035095215 -11.225000381469727,29.759000778198242 -10.795999526977539,29.124000549316406z"></path>
        <animateMotion repeatCount="indefinite" dur="5s"><mpath href="#ruta-plane-path"/></animateMotion>
      </g>
    </g>
  </g>
</svg>